<svg width="22" height="21" viewBox="0 0 22 21" fill="none" xmlns="http://www.w3.org/2000/svg">
<path d="M13.1306 13.6391L13.1306 13.6391C13.1683 13.6575 13.2074 13.6764 13.2471 13.6956C13.2955 13.7189 13.345 13.7428 13.3947 13.7672L14.7811 12.4677C14.7812 12.4677 14.7812 12.4676 14.7812 12.4676C15.2728 12.0054 15.8547 11.7567 16.467 11.7567C17.084 11.7567 17.6618 12.0099 18.1355 12.4732C18.1358 12.4735 18.1361 12.4738 18.1365 12.4741L20.675 14.8696C20.6751 14.8698 20.6753 14.8699 20.6754 14.87C21.1675 15.3283 21.4357 15.8839 21.4357 16.4722C21.4357 17.0552 21.173 17.6142 20.6919 18.085C20.6918 18.0851 20.6917 18.0852 20.6916 18.0853L20.5867 17.9781C20.3876 18.174 20.184 18.3611 19.9849 18.5396L13.1306 13.6391ZM13.1306 13.6391L13.1285 13.6381C12.9606 13.5591 12.8099 13.4882 12.6826 13.414C11.3285 12.6052 10.0958 11.5502 8.91096 10.1816C8.37236 9.54144 8.00363 9.00096 7.73267 8.4625C8.04579 8.18869 8.34046 7.90754 8.6249 7.63614C8.6581 7.60446 8.69117 7.57291 8.72411 7.54152C8.78934 7.48018 8.85449 7.41783 8.91908 7.35602C8.98396 7.29392 9.04829 7.23236 9.11253 7.17196C9.62235 6.69262 9.88883 6.13063 9.88883 5.5568C9.88883 4.98297 9.62235 4.42099 9.11253 3.94164L7.84883 2.75348C7.70501 2.61826 7.55868 2.48065 7.42182 2.34339L7.42183 2.34337L7.42012 2.34171C7.1426 2.07208 6.84915 1.79172 6.54562 1.52818C6.07193 1.08818 5.50002 0.85 4.89467 0.85C4.28886 0.85 3.70771 1.08852 3.22034 1.52843L3.22032 1.52841L3.21809 1.5305L3.21807 1.53052L3.21804 1.53055L3.21801 1.53058L3.21799 1.5306L3.21796 1.53063L3.21793 1.53065L3.21791 1.53068L3.21788 1.5307L3.21785 1.53072L3.21783 1.53075L3.2178 1.53077L3.21778 1.5308L3.21775 1.53082L3.21772 1.53085L3.2177 1.53087L3.21767 1.53089L3.21765 1.53092L3.21762 1.53094L3.2176 1.53097L3.21757 1.53099L3.21755 1.53101L3.21752 1.53104L3.2175 1.53106L3.21747 1.53108L3.21745 1.53111L3.21742 1.53113L3.2174 1.53115L3.21737 1.53118L3.21735 1.5312L3.21733 1.53122L3.2173 1.53124L3.21728 1.53127L3.21725 1.53129L3.21723 1.53131L3.21721 1.53133L3.21718 1.53136L3.21716 1.53138L3.21714 1.5314L3.21711 1.53142L3.21709 1.53144L3.21707 1.53147L3.21704 1.53149L3.21702 1.53151L3.217 1.53153L3.21697 1.53155L3.21695 1.53157L3.21693 1.53159L3.21691 1.53162L3.21688 1.53164L3.21686 1.53166L3.21684 1.53168L3.21682 1.5317L3.21679 1.53172L3.21677 1.53174L3.21675 1.53176L3.21673 1.53178L3.21671 1.5318L3.21669 1.53182L3.21666 1.53184L3.21664 1.53186L3.21662 1.53188L3.2166 1.5319L3.21658 1.53192L3.21656 1.53194L3.21654 1.53196L3.21651 1.53198L3.21649 1.532L3.21647 1.53202L3.21645 1.53204L3.21643 1.53206L3.21641 1.53208L3.21639 1.5321L3.21637 1.53212L3.21635 1.53214L3.21633 1.53216L3.21631 1.53218L3.21629 1.5322L3.21627 1.53222L3.21625 1.53224L3.21623 1.53225L3.21621 1.53227L3.21619 1.53229L3.21617 1.53231L3.21615 1.53233L3.21613 1.53235L3.21611 1.53237L3.21609 1.53238L3.21607 1.5324L3.21605 1.53242L3.21603 1.53244L3.21601 1.53246L3.21599 1.53247L3.21597 1.53249L3.21595 1.53251L3.21594 1.53253L3.21592 1.53255L3.2159 1.53256L3.21588 1.53258L3.21586 1.5326L3.21584 1.53262L3.21582 1.53263L3.2158 1.53265L3.21579 1.53267L3.21577 1.53269L3.21575 1.5327L3.21573 1.53272L3.21571 1.53274L3.2157 1.53275L3.21568 1.53277L3.21566 1.53279L3.21564 1.53281L3.21562 1.53282L3.21561 1.53284L3.21559 1.53286L3.21557 1.53287L3.21555 1.53289L3.21553 1.53291L3.21552 1.53292L3.2155 1.53294L3.21548 1.53295L3.21546 1.53297L3.21545 1.53299L3.21543 1.533L3.21541 1.53302L3.2154 1.53304L3.21538 1.53305L3.21536 1.53307L3.21534 1.53308L3.21533 1.5331L3.21531 1.53312L3.21529 1.53313L3.21528 1.53315L3.21526 1.53316L3.21524 1.53318L3.21523 1.53319L3.21521 1.53321L3.21519 1.53322L3.21518 1.53324L3.21516 1.53326L3.21515 1.53327L3.21513 1.53329L3.21511 1.5333L3.2151 1.53332L3.21508 1.53333L3.21506 1.53335L3.21505 1.53336L3.21503 1.53338L3.21502 1.53339L3.215 1.53341L3.21498 1.53342L3.21497 1.53344L3.21495 1.53345L3.21494 1.53347L3.21492 1.53348L3.21491 1.5335L3.21489 1.53351L3.21487 1.53353L3.21486 1.53354L3.21484 1.53356L3.21483 1.53357L3.21481 1.53358L3.2148 1.5336L3.21478 1.53361L3.21477 1.53363L3.21475 1.53364L3.21474 1.53366L3.21472 1.53367L3.2147 1.53369L3.21469 1.5337L3.21467 1.53371L3.21466 1.53373L3.21464 1.53374L3.21463 1.53376L3.21461 1.53377L3.2146 1.53378L3.21458 1.5338L3.21457 1.53381L3.21456 1.53383L3.21454 1.53384L3.21453 1.53385L3.21451 1.53387L3.2145 1.53388L3.21448 1.5339L3.21447 1.53391L3.21445 1.53392L3.21444 1.53394L3.21442 1.53395L3.21441 1.53396L3.21439 1.53398L3.21438 1.53399L3.21436 1.534L3.21435 1.53402L3.21434 1.53403L3.21432 1.53405L3.21431 1.53406L3.21429 1.53407L3.21428 1.53409L3.21426 1.5341L3.21425 1.53411L3.21424 1.53413L3.21422 1.53414L3.21421 1.53415L3.21419 1.53417L3.21418 1.53418L3.21417 1.53419L3.21415 1.53421L3.21414 1.53422L3.21412 1.53423L3.21411 1.53425L3.21409 1.53426L3.21408 1.53427L3.21407 1.53429L3.21405 1.5343L3.21404 1.53431L3.21403 1.53432L3.21401 1.53434L3.214 1.53435L3.21398 1.53436L3.21397 1.53438L3.21396 1.53439L3.21394 1.5344L3.21393 1.53442L3.21391 1.53443L3.2139 1.53444L3.21389 1.53445L3.21387 1.53447L3.21386 1.53448L3.21385 1.53449L3.21383 1.53451L3.21382 1.53452L3.2138 1.53453L3.21379 1.53454L3.21378 1.53456L3.21376 1.53457L3.21375 1.53458L3.21374 1.5346L3.21372 1.53461L3.21371 1.53462L3.2137 1.53463L3.21368 1.53465L3.21367 1.53466L3.21365 1.53467L3.21364 1.53469L3.21363 1.5347L3.21361 1.53471L3.2136 1.53472L3.21359 1.53474L3.21357 1.53475L3.21356 1.53476L3.21355 1.53478L3.21353 1.53479L3.21352 1.5348L3.21351 1.53481L3.21349 1.53483L3.21348 1.53484L3.21346 1.53485L3.21345 1.53486L3.21344 1.53488L3.21342 1.53489L3.21341 1.5349L3.2134 1.53492L3.21338 1.53493L3.21337 1.53494L3.21336 1.53495L3.21334 1.53497L3.21333 1.53498L3.21332 1.53499L3.2133 1.535L3.21329 1.53502L3.21327 1.53503L3.21326 1.53504L3.21325 1.53506L3.21323 1.53507L3.21322 1.53508L3.21321 1.53509L3.21319 1.53511L3.21318 1.53512L3.21317 1.53513L3.21315 1.53515L3.21314 1.53516L3.21312 1.53517L3.21311 1.53518L3.2131 1.5352L3.21308 1.53521L3.21307 1.53522L3.21306 1.53524L3.21304 1.53525L3.21303 1.53526L3.21301 1.53527L3.213 1.53529L3.21299 1.5353L3.21297 1.53531L3.21296 1.53533L3.21295 1.53534L3.21293 1.53535L3.21292 1.53537L3.2129 1.53538L3.21289 1.53539L3.21288 1.53541L3.21286 1.53542L3.21285 1.53543L3.21283 1.53544L3.21282 1.53546L3.21281 1.53547L3.21279 1.53548L3.21278 1.5355L3.21276 1.53551L3.21275 1.53552L3.21274 1.53554L3.21272 1.53555L3.21271 1.53556L3.21269 1.53558L3.21268 1.53559L3.21266 1.5356L3.21265 1.53562L3.21264 1.53563L3.21262 1.53564L3.21261 1.53566L3.21259 1.53567L3.21258 1.53568L3.21256 1.5357L3.21255 1.53571L3.21254 1.53573L3.21252 1.53574L3.21251 1.53575L3.21249 1.53577L3.21248 1.53578L3.21246 1.53579L3.21245 1.53581L3.21243 1.53582L3.21242 1.53584L3.2124 1.53585L3.21239 1.53586L3.21237 1.53588L3.21236 1.53589L3.21234 1.5359L3.21233 1.53592L3.21231 1.53593L3.2123 1.53595L3.21228 1.53596L3.21227 1.53598L3.21225 1.53599L3.21224 1.536L3.21222 1.53602L3.21221 1.53603L3.21219 1.53605L3.21218 1.53606L3.21216 1.53608L3.21215 1.53609L3.21213 1.5361L3.21212 1.53612L3.2121 1.53613L3.21209 1.53615L3.21207 1.53616L3.21205 1.53618L3.21204 1.53619L3.21202 1.53621L3.21201 1.53622L3.21199 1.53624L3.21198 1.53625L3.21196 1.53627L3.21194 1.53628L3.21193 1.5363L3.21191 1.53631L3.2119 1.53633L3.21188 1.53634L3.21186 1.53636L3.21185 1.53637L3.21183 1.53639L3.21182 1.5364L3.2118 1.53642L3.21178 1.53643L3.21177 1.53645L3.21175 1.53646L3.21173 1.53648L3.21172 1.53649L3.2117 1.53651L3.21168 1.53652L3.21167 1.53654L3.21165 1.53656L3.21163 1.53657L3.21162 1.53659L3.2116 1.5366L3.21158 1.53662L3.21157 1.53664L3.21155 1.53665L3.21153 1.53667L3.21152 1.53668L3.2115 1.5367L3.21148 1.53672L3.21146 1.53673L3.21145 1.53675L3.21143 1.53677L3.21141 1.53678L3.21139 1.5368L3.21138 1.53681L3.21136 1.53683L3.21134 1.53685L3.21132 1.53686L3.21131 1.53688L3.21129 1.5369L3.21127 1.53692L3.21125 1.53693L3.21123 1.53695L3.21122 1.53697L3.2112 1.53698L3.21118 1.537L3.21116 1.53702L3.21114 1.53703L3.21112 1.53705L3.21111 1.53707L3.21109 1.53709L3.21107 1.5371L3.21105 1.53712L3.21103 1.53714L3.21101 1.53716L3.21099 1.53718L3.21097 1.53719L3.21096 1.53721L3.21094 1.53723L3.21092 1.53725L3.2109 1.53726L3.21088 1.53728L3.21086 1.5373L3.21084 1.53732L3.21082 1.53734L3.2108 1.53736L3.21078 1.53737L3.21076 1.53739L3.21074 1.53741L3.21072 1.53743L3.2107 1.53745L3.21068 1.53747L3.21066 1.53749L3.21064 1.53751L3.21062 1.53752L3.2106 1.53754L3.21058 1.53756L3.21056 1.53758L3.21054 1.5376L3.21052 1.53762L3.2105 1.53764L3.21048 1.53766L3.21046 1.53768L3.21044 1.5377L3.21041 1.53772L3.21039 1.53774L3.21037 1.53776L3.21035 1.53778L3.21033 1.5378L3.21031 1.53782L3.21029 1.53784L3.21027 1.53786L3.21024 1.53788L3.21022 1.5379L3.2102 1.53792L3.21018 1.53794L3.21016 1.53796L3.21013 1.53798L3.21011 1.538L3.21009 1.53802L3.21007 1.53805L3.21005 1.53807L3.21002 1.53809L3.21 1.53811L3.20998 1.53813L3.20995 1.53815L3.20993 1.53817L3.20991 1.53819L3.20989 1.53822L3.20986 1.53824L3.20984 1.53826L3.20982 1.53828L3.20979 1.5383L3.20977 1.53833L3.20975 1.53835L3.20972 1.53837L3.2097 1.53839L3.20968 1.53841L3.20965 1.53844L3.20963 1.53846L3.2096 1.53848L3.20958 1.5385L3.20955 1.53853L3.20953 1.53855L3.20951 1.53857L3.20948 1.5386L3.20946 1.53862L3.20943 1.53864L3.20941 1.53867L3.20938 1.53869L3.20936 1.53871L3.20933 1.53874L3.20931 1.53876L3.20928 1.53878L3.20926 1.53881L3.20923 1.53883L3.2092 1.53886L3.20918 1.53888L3.20915 1.5389L3.20913 1.53893L3.2091 1.53895L3.20908 1.53898L3.20905 1.539L3.20902 1.53903L3.209 1.53905L3.20897 1.53908L3.20894 1.5391L3.20892 1.53913L3.20889 1.53915L3.20886 1.53918L3.20883 1.5392L3.20836 1.53966L1.635 3.03202C1.63492 3.0321 1.63484 3.03218 1.63476 3.03226C1.01675 3.61343 0.661529 4.32578 0.583936 5.15106L0.583851 5.15204C0.469586 6.45916 0.878906 7.67017 1.18624 8.44949C1.94376 10.3708 3.07438 12.1481 4.75455 14.0473L4.75489 14.0477C6.79628 16.3396 9.25273 18.1496 12.0583 19.4247L12.0594 19.4252C13.1277 19.9012 14.5691 20.472 16.1848 20.5695L16.1871 20.5696C16.2839 20.5739 16.389 20.5784 16.4855 20.5784C17.5919 20.5784 18.5296 20.2031 19.2635 19.4541L19.2786 19.4386L19.2802 19.4357C19.2809 19.435 19.2815 19.4342 19.2822 19.4335C19.2856 19.4297 19.2896 19.4249 19.2938 19.4192C19.5094 19.1747 19.7558 18.9507 20.0227 18.7079C20.0435 18.689 20.0644 18.67 20.0855 18.6509L13.1306 13.6391ZM19.1293 17.4869C19.0945 17.5188 19.0591 17.5511 19.0231 17.5842C18.7224 17.8538 18.4133 18.14 18.1217 18.4624C17.6851 18.9002 17.1742 19.1077 16.4901 19.1077C16.4197 19.1077 16.3505 19.1076 16.2866 19.1036L16.2862 19.1036C14.9399 19.0226 13.6831 18.5275 12.7284 18.0982C10.1276 16.9143 7.84423 15.234 5.94657 13.1042C4.37706 11.3255 3.33229 9.68637 2.6411 7.93042L2.64093 7.92998C2.21568 6.85947 2.06583 6.03949 2.1325 5.27414C2.17541 4.80273 2.36638 4.41435 2.72463 4.07752L4.30133 2.59505C4.5096 2.41174 4.71583 2.32511 4.90393 2.32511C5.13882 2.32511 5.33934 2.45961 5.477 2.58904C5.477 2.58904 5.477 2.58905 5.477 2.58905L5.49089 2.6021L5.49083 2.60216L5.49464 2.60551C5.77404 2.85098 6.04028 3.10558 6.32235 3.37949L6.32237 3.37951C6.39463 3.44964 6.46797 3.51969 6.54138 3.5898L6.543 3.59134C6.61602 3.66108 6.68913 3.7309 6.76217 3.80173L6.76216 3.80174L6.76384 3.80332L8.02754 4.99149C8.25898 5.2091 8.34828 5.39422 8.34828 5.5568C8.34828 5.71939 8.25898 5.90451 8.02754 6.12212C7.98123 6.16566 7.93615 6.20854 7.89163 6.25089C7.8045 6.33378 7.71947 6.41466 7.63138 6.49463L7.63133 6.49459L7.62817 6.49763C7.23995 6.87134 6.8725 7.21675 6.47366 7.55296L6.47352 7.55279L6.46959 7.55649L6.46834 7.55746L6.46291 7.56173C6.45778 7.56587 6.44641 7.5751 6.43442 7.58964C6.21921 7.79564 6.12254 8.00851 6.09744 8.21239C6.0725 8.41496 6.12023 8.59392 6.1643 8.72512L6.16428 8.72513L6.16511 8.72748L6.17206 8.74707L6.179 8.76665L6.17862 8.76679L6.18303 8.77683C6.51911 9.54233 6.99103 10.2595 7.70053 11.1065L7.70627 11.1133L7.71172 11.1185C8.99694 12.606 10.3545 13.7685 11.854 14.6601C12.0501 14.777 12.25 14.871 12.4335 14.9572L12.4362 14.9585C12.6044 15.0376 12.7553 15.1086 12.8826 15.183L12.8823 15.1835L12.8944 15.1892C12.8963 15.1901 12.8995 15.1918 12.91 15.198C12.9181 15.2027 12.9334 15.2118 12.95 15.2196C13.1249 15.3018 13.2947 15.3427 13.4721 15.3427C13.9157 15.3427 14.1931 15.0819 14.2772 15.0028L14.2784 15.0017L15.8615 13.5132C16.011 13.3726 16.2249 13.2275 16.4577 13.2275C16.6859 13.2275 16.8854 13.3644 17.0166 13.4996L17.0165 13.4997L17.0215 13.5045L17.0215 13.5045L17.0216 13.5045L17.0216 13.5046L17.0216 13.5046L17.0216 13.5046L17.0217 13.5046L17.0217 13.5047L17.0217 13.5047L17.0218 13.5047L17.0218 13.5047L17.0218 13.5048L17.0218 13.5048L17.0219 13.5048L17.0219 13.5048L17.0219 13.5049L17.0219 13.5049L17.022 13.5049L17.022 13.5049L17.022 13.5049L17.022 13.505L17.0221 13.505L17.0221 13.505L17.0221 13.505L17.0221 13.5051L17.0222 13.5051L17.0222 13.5051L17.0222 13.5051L17.0222 13.5052L17.0223 13.5052L17.0223 13.5052L17.0223 13.5052L17.0223 13.5052L17.0224 13.5053L17.0224 13.5053L17.0224 13.5053L17.0224 13.5053L17.0224 13.5054L17.0225 13.5054L17.0225 13.5054L17.0225 13.5054L17.0225 13.5054L17.0226 13.5055L17.0226 13.5055L17.0226 13.5055L17.0226 13.5055L17.0227 13.5056L17.0227 13.5056L17.0227 13.5056L17.0227 13.5056L17.0227 13.5056L17.0228 13.5057L17.0228 13.5057L17.0228 13.5057L17.0228 13.5057L17.0229 13.5057L17.0229 13.5058L17.0229 13.5058L17.0229 13.5058L17.0229 13.5058L17.023 13.5058L17.023 13.5059L17.023 13.5059L17.023 13.5059L17.0231 13.5059L17.0231 13.5059L17.0231 13.506L17.0231 13.506L17.0231 13.506L17.0232 13.506L17.0232 13.506L17.0232 13.5061L17.0232 13.5061L17.0232 13.5061L17.0233 13.5061L17.0233 13.5061L17.0233 13.5062L17.0233 13.5062L17.0233 13.5062L17.0234 13.5062L17.0234 13.5062L17.0234 13.5063L17.0234 13.5063L17.0234 13.5063L17.0235 13.5063L17.0235 13.5063L17.0235 13.5063L17.0235 13.5064L17.0235 13.5064L17.0236 13.5064L17.0236 13.5064L17.0236 13.5064L17.0236 13.5065L17.0236 13.5065L17.0237 13.5065L17.0237 13.5065L17.0237 13.5065L17.0237 13.5065L17.0237 13.5066L17.0237 13.5066L17.0238 13.5066L17.0238 13.5066L17.0238 13.5066L17.0238 13.5067L17.0238 13.5067L17.0239 13.5067L17.0239 13.5067L17.0239 13.5067L17.0239 13.5067L17.0239 13.5068L17.0239 13.5068L17.024 13.5068L17.024 13.5068L17.024 13.5068L17.024 13.5068L17.024 13.5069L17.0241 13.5069L17.0241 13.5069L17.0241 13.5069L17.0241 13.5069L17.0241 13.5069L17.0241 13.507L17.0242 13.507L17.0242 13.507L17.0242 13.507L17.0242 13.507L17.0242 13.507L17.0242 13.5071L17.0243 13.5071L17.0243 13.5071L17.0243 13.5071L17.0243 13.5071L17.0243 13.5071L17.0243 13.5071L17.0244 13.5072L17.0244 13.5072L17.0244 13.5072L17.0244 13.5072L17.0244 13.5072L17.0244 13.5072L17.0245 13.5073L17.0245 13.5073L17.0245 13.5073L17.0245 13.5073L17.0245 13.5073L17.0245 13.5073L17.0246 13.5073L17.0246 13.5074L17.0246 13.5074L17.0246 13.5074L17.0246 13.5074L17.0246 13.5074L17.0247 13.5074L17.0247 13.5075L17.0247 13.5075L17.0247 13.5075L17.0247 13.5075L17.0247 13.5075L17.0247 13.5075L17.0248 13.5075L17.0248 13.5076L17.0248 13.5076L17.0248 13.5076L17.0248 13.5076L17.0248 13.5076L17.0249 13.5076L17.0249 13.5076L17.0249 13.5077L17.0249 13.5077L17.0249 13.5077L17.0249 13.5077L17.0249 13.5077L17.025 13.5077L17.025 13.5077L17.025 13.5078L17.025 13.5078L17.025 13.5078L17.025 13.5078L17.0251 13.5078L17.0251 13.5078L17.0251 13.5078L17.0251 13.5079L17.0251 13.5079L17.0251 13.5079L17.0251 13.5079L17.0252 13.5079L17.0252 13.5079L17.0252 13.5079L17.0252 13.5079L17.0252 13.508L17.0252 13.508L17.0252 13.508L17.0253 13.508L17.0253 13.508L17.0253 13.508L17.0253 13.508L17.0253 13.5081L17.0253 13.5081L17.0253 13.5081L17.0254 13.5081L17.0254 13.5081L17.0254 13.5081L17.0254 13.5081L17.0254 13.5081L17.0254 13.5082L17.0254 13.5082L17.0255 13.5082L17.0255 13.5082L17.0255 13.5082L17.0255 13.5082L17.0255 13.5082L17.0255 13.5083L17.0255 13.5083L17.0256 13.5083L17.0256 13.5083L17.0256 13.5083L17.0256 13.5083L17.0256 13.5083L17.0256 13.5083L17.0256 13.5084L17.0257 13.5084L17.0257 13.5084L17.0257 13.5084L17.0257 13.5084L17.0257 13.5084L17.0257 13.5084L17.0257 13.5085L17.0257 13.5085L17.0258 13.5085L17.0258 13.5085L17.0258 13.5085L17.0258 13.5085L17.0258 13.5085L17.0258 13.5085L17.0258 13.5086L17.0259 13.5086L17.0259 13.5086L17.0259 13.5086L17.0259 13.5086L17.0259 13.5086L17.0259 13.5086L17.0259 13.5086L17.026 13.5087L17.026 13.5087L17.026 13.5087L17.026 13.5087L17.026 13.5087L17.026 13.5087L17.026 13.5087L17.026 13.5087L17.0261 13.5088L17.0261 13.5088L17.0261 13.5088L17.0261 13.5088L17.0261 13.5088L17.0261 13.5088L17.0261 13.5088L17.0262 13.5088L17.0262 13.5089L17.0262 13.5089L17.0262 13.5089L17.0262 13.5089L17.0262 13.5089L17.0262 13.5089L17.0263 13.5089L17.0263 13.5089L17.0263 13.509L17.0263 13.509L17.0263 13.509L17.0263 13.509L17.0263 13.509L17.0263 13.509L17.0264 13.509L17.0264 13.5091L17.0264 13.5091L17.0264 13.5091L17.0264 13.5091L17.0264 13.5091L17.0264 13.5091L17.0265 13.5091L17.0265 13.5091L17.0265 13.5092L17.0265 13.5092L17.0265 13.5092L17.0265 13.5092L17.0265 13.5092L17.0266 13.5092L17.0266 13.5092L17.0266 13.5092L17.0266 13.5093L17.0266 13.5093L17.0266 13.5093L17.0266 13.5093L17.0266 13.5093L17.0267 13.5093L17.0267 13.5093L17.0267 13.5093L17.0267 13.5094L17.0267 13.5094L17.0267 13.5094L17.0267 13.5094L17.0268 13.5094L17.0268 13.5094L17.0268 13.5094L17.0268 13.5095L17.0268 13.5095L17.0268 13.5095L17.0268 13.5095L17.0269 13.5095L17.0269 13.5095L17.0269 13.5095L17.0269 13.5095L17.0269 13.5096L17.0269 13.5096L17.0269 13.5096L17.027 13.5096L17.027 13.5096L17.027 13.5096L17.027 13.5096L17.027 13.5097L17.027 13.5097L17.027 13.5097L17.0271 13.5097L17.0271 13.5097L17.0271 13.5097L17.0271 13.5097L17.0271 13.5097L17.0271 13.5098L17.0271 13.5098L17.0272 13.5098L17.0272 13.5098L17.0272 13.5098L17.0272 13.5098L17.0272 13.5098L17.0272 13.5099L17.0272 13.5099L17.0273 13.5099L17.0273 13.5099L17.0273 13.5099L17.0273 13.5099L17.0273 13.5099L17.0273 13.51L17.0274 13.51L17.0274 13.51L17.0274 13.51L17.0274 13.51L17.0274 13.51L17.0274 13.51L17.0274 13.5101L17.0275 13.5101L17.0275 13.5101L17.0275 13.5101L17.0275 13.5101L17.0275 13.5101L17.0275 13.5101L17.0276 13.5102L17.0276 13.5102L17.0276 13.5102L17.0276 13.5102L17.0276 13.5102L17.0276 13.5102L17.0276 13.5102L17.0277 13.5103L17.0277 13.5103L17.0277 13.5103L17.0277 13.5103L17.0277 13.5103L17.0277 13.5103L17.0278 13.5104L17.0278 13.5104L17.0278 13.5104L17.0278 13.5104L17.0278 13.5104L17.0278 13.5104L17.0279 13.5104L17.0279 13.5105L17.0279 13.5105L17.0279 13.5105L17.0279 13.5105L17.0279 13.5105L17.028 13.5105L17.028 13.5106L17.028 13.5106L17.028 13.5106L17.028 13.5106L17.028 13.5106L17.0281 13.5106L17.0281 13.5107L17.0281 13.5107L17.0281 13.5107L17.0281 13.5107L17.0281 13.5107L17.0282 13.5107L17.0282 13.5107L17.0282 13.5108L17.0282 13.5108L17.0282 13.5108L17.0282 13.5108L17.0283 13.5108L17.0283 13.5108L17.0283 13.5109L17.0283 13.5109L17.0283 13.5109L17.0284 13.5109L17.0284 13.5109L17.0284 13.5109L17.0284 13.511L17.0284 13.511L17.0284 13.511L17.0285 13.511L17.0285 13.511L17.0285 13.5111L17.0285 13.5111L17.0285 13.5111L17.0286 13.5111L17.0286 13.5111L17.0286 13.5111L17.0286 13.5112L17.0286 13.5112L17.0287 13.5112L17.0287 13.5112L17.0287 13.5112L17.0287 13.5112L17.0287 13.5113L17.0287 13.5113L17.0288 13.5113L17.0288 13.5113L17.0288 13.5113L17.0288 13.5114L17.0288 13.5114L17.0289 13.5114L17.0289 13.5114L17.0289 13.5114L17.0289 13.5115L17.0289 13.5115L17.029 13.5115L17.029 13.5115L17.029 13.5115L17.029 13.5115L17.029 13.5116L17.0291 13.5116L17.0291 13.5116L17.0291 13.5116L17.0291 13.5116L17.0292 13.5117L17.0292 13.5117L17.0292 13.5117L17.0292 13.5117L17.0292 13.5117L17.0293 13.5118L17.0293 13.5118L17.0293 13.5118L17.0293 13.5118L17.0293 13.5118L17.0294 13.5119L17.0294 13.5119L17.0294 13.5119L17.0294 13.5119L17.0294 13.5119L17.0295 13.512L17.0295 13.512L17.0295 13.512L17.0295 13.512L17.0296 13.512L17.0296 13.5121L17.0296 13.5121L17.0296 13.5121L17.0297 13.5121L17.0297 13.5122L17.0297 13.5122L17.0297 13.5122L17.0297 13.5122L17.0298 13.5122L17.0298 13.5123L17.0298 13.5123L17.0298 13.5123L17.0299 13.5123L17.0299 13.5124L17.0299 13.5124L17.0299 13.5124L17.03 13.5124L17.03 13.5124L17.03 13.5125L17.03 13.5125L17.0301 13.5125L17.0301 13.5125L17.0301 13.5126L17.0301 13.5126L17.0301 13.5126L17.0302 13.5126L17.0302 13.5126L17.0302 13.5127L17.0302 13.5127L17.0303 13.5127L17.0303 13.5127L17.0303 13.5128L17.0303 13.5128L17.0304 13.5128L17.0304 13.5128L17.0304 13.5129L17.0305 13.5129L17.0305 13.5129L17.0305 13.5129L17.0305 13.513L17.0306 13.513L17.0306 13.513L17.0306 13.513L17.0306 13.5131L17.0307 13.5131L17.0307 13.5131L17.0307 13.5131L17.0307 13.5132L17.0308 13.5132L19.5813 15.9113L19.5818 15.9118C19.803 16.1177 19.8918 16.3062 19.8922 16.477C19.8927 16.6472 19.8055 16.8388 19.5889 17.052C19.5878 17.053 19.5866 17.0541 19.5854 17.0553L19.5794 17.0613C19.579 17.0617 19.5785 17.0623 19.5779 17.063C19.4339 17.2085 19.2872 17.3426 19.1293 17.4869Z" fill="#333333" stroke="#333333" stroke-width="0.3"/>
</svg>
