<svg width="35" height="31" viewBox="0 0 35 31" fill="none" xmlns="http://www.w3.org/2000/svg">
<path fill-rule="evenodd" clip-rule="evenodd" d="M9.99979 9H6.5601C6.07486 9 5.65965 9.34836 5.57532 9.82621L2.98583 24.5H32.0138L29.4243 9.82622C29.3399 9.34836 28.9247 9 28.4395 9H24.9998V12.3368C26.1823 12.8985 26.9998 14.1038 26.9998 15.5C26.9998 17.433 25.4328 19 23.4998 19C21.5668 19 19.9998 17.433 19.9998 15.5C19.9998 13.7368 21.3036 12.2781 22.9998 12.0354V9H11.9998V12.0354C13.6959 12.2781 14.9998 13.7368 14.9998 15.5C14.9998 17.433 13.4328 19 11.4998 19C9.56679 19 7.99979 17.433 7.99979 15.5C7.99979 14.1038 8.81732 12.8985 9.99979 12.3368V9ZM22.9774 7C22.7248 4.19675 20.3688 2 17.4998 2C14.6308 2 12.2748 4.19675 12.0222 7H22.9774ZM24.9834 7H28.4395C29.8952 7 31.1408 8.04507 31.3938 9.47865L34.1905 25.3262L34.5703 27.4786C34.8945 29.3157 33.4813 31 31.6159 31H3.38363C1.51823 31 0.105103 29.3157 0.429283 27.4786L0.809123 25.3262L3.60575 9.47864C3.85874 8.04507 5.10438 7 6.5601 7H10.0162C10.2735 3.09098 13.5257 0 17.4998 0C21.4739 0 24.7261 3.09098 24.9834 7ZM2.39885 27.8262L2.63289 26.5H32.3667L32.6007 27.8262C32.7088 28.4386 32.2377 29 31.6159 29H3.38363C2.76183 29 2.29079 28.4386 2.39885 27.8262ZM11.4998 17C12.3282 17 12.9998 16.3284 12.9998 15.5C12.9998 14.6716 12.3282 14 11.4998 14C10.6714 14 9.99979 14.6716 9.99979 15.5C9.99979 16.3284 10.6714 17 11.4998 17ZM24.9998 15.5C24.9998 16.3284 24.3282 17 23.4998 17C22.6714 17 21.9998 16.3284 21.9998 15.5C21.9998 14.6716 22.6714 14 23.4998 14C24.3282 14 24.9998 14.6716 24.9998 15.5Z" fill="#BBBBBB"/>
</svg>
