<svg width="56" height="43" viewBox="0 0 56 43" fill="none" xmlns="http://www.w3.org/2000/svg">
<g filter="url(#filter0_d)">
<mask id="path-1-inside-1" fill="white">
<path d="M8.8837 12.4535H21.2665C21.5053 12.4535 21.7344 12.3603 21.9033 12.1945C22.0722 12.0287 22.1671 11.8038 22.1671 11.5693C22.1671 11.3348 22.0722 11.1099 21.9033 10.944C21.7344 10.7782 21.5053 10.6851 21.2665 10.6851H8.8837C8.64485 10.6851 8.41577 10.7782 8.24688 10.944C8.07798 11.1099 7.98309 11.3348 7.98309 11.5693C7.98309 11.8038 8.07798 12.0287 8.24688 12.1945C8.41577 12.3603 8.64485 12.4535 8.8837 12.4535Z"/>
</mask>
<path d="M8.8837 12.4535H21.2665C21.5053 12.4535 21.7344 12.3603 21.9033 12.1945C22.0722 12.0287 22.1671 11.8038 22.1671 11.5693C22.1671 11.3348 22.0722 11.1099 21.9033 10.944C21.7344 10.7782 21.5053 10.6851 21.2665 10.6851H8.8837C8.64485 10.6851 8.41577 10.7782 8.24688 10.944C8.07798 11.1099 7.98309 11.3348 7.98309 11.5693C7.98309 11.8038 8.07798 12.0287 8.24688 12.1945C8.41577 12.3603 8.64485 12.4535 8.8837 12.4535Z" fill="white"/>
<path d="M8.8837 14.4535H21.2665V10.4535H8.8837V14.4535ZM21.2665 14.4535C22.024 14.4535 22.7578 14.1584 23.3045 13.6216L20.5021 10.7674C20.711 10.5623 20.9866 10.4535 21.2665 10.4535V14.4535ZM23.3045 13.6216C23.8524 13.0837 24.1671 12.3462 24.1671 11.5693H20.1671C20.1671 11.2614 20.292 10.9737 20.5021 10.7674L23.3045 13.6216ZM24.1671 11.5693C24.1671 10.7924 23.8524 10.0548 23.3045 9.51689L20.5021 12.3712C20.292 12.1649 20.1671 11.8772 20.1671 11.5693H24.1671ZM23.3045 9.51689C22.7578 8.98017 22.024 8.68506 21.2665 8.68506V12.6851C20.9866 12.6851 20.711 12.5763 20.5021 12.3712L23.3045 9.51689ZM21.2665 8.68506H8.8837V12.6851H21.2665V8.68506ZM8.8837 8.68506C8.12615 8.68506 7.39239 8.98017 6.84571 9.51689L9.64804 12.3712C9.43916 12.5763 9.16354 12.6851 8.8837 12.6851V8.68506ZM6.84571 9.51689C6.29779 10.0548 5.98309 10.7923 5.98309 11.5693H9.98309C9.98309 11.8772 9.85816 12.1649 9.64804 12.3712L6.84571 9.51689ZM5.98309 11.5693C5.98309 12.3462 6.29779 13.0837 6.84571 13.6216L9.64804 10.7674C9.85817 10.9737 9.98309 11.2614 9.98309 11.5693H5.98309ZM6.84571 13.6216C7.39239 14.1584 8.12615 14.4535 8.8837 14.4535V10.4535C9.16354 10.4535 9.43915 10.5623 9.64804 10.7674L6.84571 13.6216Z" fill="#BBBBBB" mask="url(#path-1-inside-1)"/>
<mask id="path-3-inside-2" fill="white">
<path d="M6.89212 17.3727H19.2749C19.5137 17.3727 19.7428 17.2796 19.9117 17.1138C20.0806 16.9479 20.1755 16.723 20.1755 16.4885C20.1755 16.254 20.0806 16.0291 19.9117 15.8633C19.7428 15.6975 19.5137 15.6043 19.2749 15.6043H6.89212C6.65327 15.6043 6.42419 15.6975 6.2553 15.8633C6.0864 16.0291 5.99152 16.254 5.99152 16.4885C5.99152 16.723 6.0864 16.9479 6.2553 17.1138C6.42419 17.2796 6.65327 17.3727 6.89212 17.3727Z"/>
</mask>
<path d="M6.89212 17.3727H19.2749C19.5137 17.3727 19.7428 17.2796 19.9117 17.1138C20.0806 16.9479 20.1755 16.723 20.1755 16.4885C20.1755 16.254 20.0806 16.0291 19.9117 15.8633C19.7428 15.6975 19.5137 15.6043 19.2749 15.6043H6.89212C6.65327 15.6043 6.42419 15.6975 6.2553 15.8633C6.0864 16.0291 5.99152 16.254 5.99152 16.4885C5.99152 16.723 6.0864 16.9479 6.2553 17.1138C6.42419 17.2796 6.65327 17.3727 6.89212 17.3727Z" fill="white"/>
<path d="M6.89212 19.3727H19.2749V15.3727H6.89212V19.3727ZM19.2749 19.3727C20.0324 19.3727 20.7662 19.0776 21.3129 18.5409L18.5105 15.6866C18.7194 15.4815 18.995 15.3727 19.2749 15.3727V19.3727ZM21.3129 18.5409C21.8608 18.003 22.1755 17.2654 22.1755 16.4885H18.1755C18.1755 16.1806 18.3004 15.8929 18.5105 15.6866L21.3129 18.5409ZM22.1755 16.4885C22.1755 15.7116 21.8608 14.9741 21.3129 14.4361L18.5105 17.2904C18.3004 17.0841 18.1755 16.7964 18.1755 16.4885H22.1755ZM21.3129 14.4361C20.7662 13.8994 20.0324 13.6043 19.2749 13.6043V17.6043C18.995 17.6043 18.7194 17.4955 18.5105 17.2904L21.3129 14.4361ZM19.2749 13.6043H6.89212V17.6043H19.2749V13.6043ZM6.89212 13.6043C6.13457 13.6043 5.40081 13.8994 4.85413 14.4361L7.65646 17.2904C7.44758 17.4955 7.17197 17.6043 6.89212 17.6043V13.6043ZM4.85413 14.4361C4.30621 14.9741 3.99152 15.7116 3.99152 16.4885H7.99152C7.99152 16.7964 7.86659 17.0841 7.65646 17.2904L4.85413 14.4361ZM3.99152 16.4885C3.99152 17.2654 4.30621 18.003 4.85413 18.5409L7.65646 15.6866C7.86659 15.8929 7.99152 16.1806 7.99152 16.4885H3.99152ZM4.85413 18.5409C5.40081 19.0776 6.13457 19.3727 6.89212 19.3727V15.3727C7.17197 15.3727 7.44758 15.4815 7.65646 15.6866L4.85413 18.5409Z" fill="#BBBBBB" mask="url(#path-3-inside-2)"/>
<mask id="path-5-inside-3" fill="white">
<path d="M18.184 21.4083C18.184 21.1738 18.0891 20.9489 17.9202 20.7831C17.7513 20.6173 17.5222 20.5241 17.2834 20.5241H4.90061C4.66175 20.5241 4.43268 20.6173 4.26378 20.7831C4.09489 20.9489 4 21.1738 4 21.4083C4 21.6428 4.09489 21.8677 4.26378 22.0336C4.43268 22.1994 4.66175 22.2925 4.90061 22.2925H17.2834C17.5222 22.2925 17.7513 22.1994 17.9202 22.0336C18.0891 21.8677 18.184 21.6428 18.184 21.4083Z"/>
</mask>
<path d="M18.184 21.4083C18.184 21.1738 18.0891 20.9489 17.9202 20.7831C17.7513 20.6173 17.5222 20.5241 17.2834 20.5241H4.90061C4.66175 20.5241 4.43268 20.6173 4.26378 20.7831C4.09489 20.9489 4 21.1738 4 21.4083C4 21.6428 4.09489 21.8677 4.26378 22.0336C4.43268 22.1994 4.66175 22.2925 4.90061 22.2925H17.2834C17.5222 22.2925 17.7513 22.1994 17.9202 22.0336C18.0891 21.8677 18.184 21.6428 18.184 21.4083Z" fill="white"/>
<path d="M4 21.4083H2H4ZM20.184 21.4083C20.184 20.6314 19.8693 19.8939 19.3214 19.3559L16.519 22.2102C16.3089 22.0039 16.184 21.7162 16.184 21.4083H20.184ZM19.3214 19.3559C18.7747 18.8192 18.0409 18.5241 17.2834 18.5241V22.5241C17.0035 22.5241 16.7279 22.4153 16.519 22.2102L19.3214 19.3559ZM17.2834 18.5241H4.90061V22.5241H17.2834V18.5241ZM4.90061 18.5241C4.14305 18.5241 3.40929 18.8192 2.86262 19.3559L5.66494 22.2102C5.45606 22.4153 5.18045 22.5241 4.90061 22.5241V18.5241ZM2.86262 19.3559C2.3147 19.8939 2 20.6314 2 21.4083H6C6 21.7162 5.87507 22.0039 5.66494 22.2102L2.86262 19.3559ZM2 21.4083C2 22.1852 2.3147 22.9228 2.86262 23.4607L5.66494 20.6064C5.87507 20.8127 6 21.1004 6 21.4083H2ZM2.86262 23.4607C3.40929 23.9974 4.14305 24.2925 4.90061 24.2925V20.2925C5.18045 20.2925 5.45606 20.4013 5.66494 20.6064L2.86262 23.4607ZM4.90061 24.2925H17.2834V20.2925H4.90061V24.2925ZM17.2834 24.2925C18.0409 24.2925 18.7747 23.9974 19.3214 23.4607L16.519 20.6064C16.7279 20.4013 17.0035 20.2925 17.2834 20.2925V24.2925ZM19.3214 23.4607C19.8693 22.9228 20.184 22.1852 20.184 21.4083H16.184C16.184 21.1004 16.3089 20.8127 16.519 20.6064L19.3214 23.4607Z" fill="#BBBBBB" mask="url(#path-5-inside-3)"/>
<mask id="path-7-inside-4" fill="white">
<path d="M13.0918 27.3799H10.9796V24.1183C10.9796 23.8838 10.8847 23.6589 10.7158 23.4931C10.5469 23.3273 10.3178 23.2341 10.079 23.2341C9.8401 23.2341 9.61102 23.3273 9.44213 23.4931C9.27323 23.6589 9.17834 23.8838 9.17834 24.1183V28.2641C9.17834 28.3802 9.20164 28.4952 9.2469 28.6025C9.29216 28.7098 9.3585 28.8072 9.44213 28.8894C9.52576 28.9715 9.62504 29.0366 9.7343 29.081C9.84357 29.1255 9.96068 29.1483 10.079 29.1483H13.0918C13.3306 29.1483 13.5597 29.0552 13.7286 28.8894C13.8975 28.7235 13.9924 28.4986 13.9924 28.2641C13.9924 28.0296 13.8975 27.8047 13.7286 27.6389C13.5597 27.4731 13.3306 27.3799 13.0918 27.3799Z"/>
</mask>
<path d="M13.0918 27.3799H10.9796V24.1183C10.9796 23.8838 10.8847 23.6589 10.7158 23.4931C10.5469 23.3273 10.3178 23.2341 10.079 23.2341C9.8401 23.2341 9.61102 23.3273 9.44213 23.4931C9.27323 23.6589 9.17834 23.8838 9.17834 24.1183V28.2641C9.17834 28.3802 9.20164 28.4952 9.2469 28.6025C9.29216 28.7098 9.3585 28.8072 9.44213 28.8894C9.52576 28.9715 9.62504 29.0366 9.7343 29.081C9.84357 29.1255 9.96068 29.1483 10.079 29.1483H13.0918C13.3306 29.1483 13.5597 29.0552 13.7286 28.8894C13.8975 28.7235 13.9924 28.4986 13.9924 28.2641C13.9924 28.0296 13.8975 27.8047 13.7286 27.6389C13.5597 27.4731 13.3306 27.3799 13.0918 27.3799Z" fill="white"/>
<path d="M10.9796 27.3799H8.97956V29.3799H10.9796V27.3799ZM9.17834 28.2641H11.1783H9.17834ZM13.0918 29.1483V27.1483V29.1483ZM13.0918 25.3799H10.9796V29.3799H13.0918V25.3799ZM12.9796 27.3799V24.1183H8.97956V27.3799H12.9796ZM12.9796 24.1183C12.9796 23.3414 12.6649 22.6039 12.1169 22.066L9.31462 24.9203C9.10449 24.714 8.97956 24.4262 8.97956 24.1183H12.9796ZM12.1169 22.066C11.5703 21.5292 10.8365 21.2341 10.079 21.2341V25.2341C9.79911 25.2341 9.5235 25.1253 9.31462 24.9203L12.1169 22.066ZM10.079 21.2341C9.3214 21.2341 8.58764 21.5292 8.04096 22.066L10.8433 24.9203C10.6344 25.1253 10.3588 25.2341 10.079 25.2341V21.2341ZM8.04096 22.066C7.49304 22.6039 7.17834 23.3414 7.17834 24.1183H11.1783C11.1783 24.4262 11.0534 24.714 10.8433 24.9203L8.04096 22.066ZM7.17834 24.1183V28.2641H11.1783V24.1183H7.17834ZM7.17834 28.2641C7.17834 28.648 7.25541 29.0273 7.40418 29.3799L11.0896 27.8251C11.1479 27.9631 11.1783 28.1124 11.1783 28.2641H7.17834ZM7.40418 29.3799C7.55292 29.7325 7.76991 30.0504 8.04096 30.3165L10.8433 27.4622C10.9471 27.5641 11.0314 27.6871 11.0896 27.8251L7.40418 29.3799ZM8.04096 30.3165C8.31193 30.5825 8.63163 30.7917 8.98088 30.9337L10.4877 27.2284C10.6184 27.2815 10.7396 27.3604 10.8433 27.4622L8.04096 30.3165ZM8.98088 30.9337C9.33006 31.0757 9.70308 31.1483 10.079 31.1483V27.1483C10.2183 27.1483 10.3571 27.1752 10.4877 27.2284L8.98088 30.9337ZM10.079 31.1483H13.0918V27.1483H10.079V31.1483ZM13.0918 31.1483C13.8493 31.1483 14.5831 30.8532 15.1298 30.3165L12.3274 27.4622C12.5363 27.2571 12.8119 27.1483 13.0918 27.1483V31.1483ZM15.1298 30.3165C15.6777 29.7785 15.9924 29.041 15.9924 28.2641H11.9924C11.9924 27.9562 12.1173 27.6685 12.3274 27.4622L15.1298 30.3165ZM15.9924 28.2641C15.9924 27.4872 15.6777 26.7497 15.1298 26.2117L12.3274 29.066C12.1173 28.8597 11.9924 28.572 11.9924 28.2641H15.9924ZM15.1298 26.2117C14.5831 25.675 13.8493 25.3799 13.0918 25.3799V29.3799C12.8119 29.3799 12.5363 29.2711 12.3274 29.066L15.1298 26.2117Z" fill="#BBBBBB" mask="url(#path-7-inside-4)"/>
<mask id="path-9-inside-5" fill="white">
<path d="M51.7321 11.6126L44.7962 4.89558C44.6285 4.73316 44.4026 4.64174 44.167 4.64093H36.0147V0.88421C36.0147 0.649703 35.9198 0.424801 35.7509 0.258979C35.582 0.0931576 35.3529 0 35.1141 0L10.0772 0C9.83833 0 9.60925 0.0931576 9.44036 0.258979C9.27146 0.424801 9.17657 0.649703 9.17657 0.88421V8.64994C9.17657 8.88444 9.27146 9.10935 9.44036 9.27517C9.60925 9.44099 9.83833 9.53415 10.0772 9.53415C10.316 9.53415 10.5451 9.44099 10.714 9.27517C10.8829 9.10935 10.9778 8.88444 10.9778 8.64994V1.76842H34.2135V27.3958H26.1122C25.8733 27.3958 25.6443 27.4889 25.4754 27.6548C25.3065 27.8206 25.2116 28.0455 25.2116 28.28C25.2116 28.5145 25.3065 28.7394 25.4754 28.9052C25.6443 29.0711 25.8733 29.1642 26.1122 29.1642H38.3365C38.5753 29.1642 38.8044 29.0711 38.9733 28.9052C39.1422 28.7394 39.2371 28.5145 39.2371 28.28C39.2371 28.0455 39.1422 27.8206 38.9733 27.6548C38.8044 27.4889 38.5753 27.3958 38.3365 27.3958H36.0147V6.41053H43.7941L50.1987 12.6118V27.3958H49.0579C48.819 27.3958 48.59 27.4889 48.4211 27.6548C48.2522 27.8206 48.1573 28.0455 48.1573 28.28C48.1573 28.5145 48.2522 28.7394 48.4211 28.9052C48.59 29.0711 48.819 29.1642 49.0579 29.1642H51.0993C51.3381 29.1642 51.5672 29.0711 51.7361 28.9052C51.905 28.7394 51.9999 28.5145 51.9999 28.28V12.241C51.9998 12.1241 51.976 12.0083 51.9301 11.9005C51.8841 11.7926 51.8168 11.6948 51.7321 11.6126Z"/>
</mask>
<path d="M51.7321 11.6126L44.7962 4.89558C44.6285 4.73316 44.4026 4.64174 44.167 4.64093H36.0147V0.88421C36.0147 0.649703 35.9198 0.424801 35.7509 0.258979C35.582 0.0931576 35.3529 0 35.1141 0L10.0772 0C9.83833 0 9.60925 0.0931576 9.44036 0.258979C9.27146 0.424801 9.17657 0.649703 9.17657 0.88421V8.64994C9.17657 8.88444 9.27146 9.10935 9.44036 9.27517C9.60925 9.44099 9.83833 9.53415 10.0772 9.53415C10.316 9.53415 10.5451 9.44099 10.714 9.27517C10.8829 9.10935 10.9778 8.88444 10.9778 8.64994V1.76842H34.2135V27.3958H26.1122C25.8733 27.3958 25.6443 27.4889 25.4754 27.6548C25.3065 27.8206 25.2116 28.0455 25.2116 28.28C25.2116 28.5145 25.3065 28.7394 25.4754 28.9052C25.6443 29.0711 25.8733 29.1642 26.1122 29.1642H38.3365C38.5753 29.1642 38.8044 29.0711 38.9733 28.9052C39.1422 28.7394 39.2371 28.5145 39.2371 28.28C39.2371 28.0455 39.1422 27.8206 38.9733 27.6548C38.8044 27.4889 38.5753 27.3958 38.3365 27.3958H36.0147V6.41053H43.7941L50.1987 12.6118V27.3958H49.0579C48.819 27.3958 48.59 27.4889 48.4211 27.6548C48.2522 27.8206 48.1573 28.0455 48.1573 28.28C48.1573 28.5145 48.2522 28.7394 48.4211 28.9052C48.59 29.0711 48.819 29.1642 49.0579 29.1642H51.0993C51.3381 29.1642 51.5672 29.0711 51.7361 28.9052C51.905 28.7394 51.9999 28.5145 51.9999 28.28V12.241C51.9998 12.1241 51.976 12.0083 51.9301 11.9005C51.8841 11.7926 51.8168 11.6948 51.7321 11.6126Z" fill="white"/>
<path d="M51.7321 11.6126L53.1243 10.1767L53.1235 10.1759L51.7321 11.6126ZM44.7962 4.89558L46.1876 3.45888L46.1874 3.45875L44.7962 4.89558ZM44.167 4.64093L44.1739 2.64093H44.167V4.64093ZM36.0147 4.64093H34.0147V6.64093H36.0147V4.64093ZM10.0772 0V-2V0ZM10.9778 1.76842V-0.231579H8.97779V1.76842H10.9778ZM34.2135 1.76842H36.2135V-0.231579H34.2135V1.76842ZM34.2135 27.3958V29.3958H36.2135V27.3958H34.2135ZM36.0147 27.3958H34.0147V29.3958H36.0147V27.3958ZM36.0147 6.41053V4.41053H34.0147V6.41053H36.0147ZM43.7941 6.41053L45.1854 4.9737L44.6037 4.41053H43.7941V6.41053ZM50.1987 12.6118H52.1987V11.7644L51.5899 11.175L50.1987 12.6118ZM50.1987 27.3958V29.3958H52.1987V27.3958H50.1987ZM51.9999 12.241H53.9999V12.2393L51.9999 12.241ZM53.1235 10.1759L46.1876 3.45888L43.4048 6.33227L50.3407 13.0493L53.1235 10.1759ZM46.1874 3.45875C45.6446 2.93317 44.9212 2.64352 44.1739 2.64094L44.1601 6.64091C43.884 6.63996 43.6123 6.53315 43.405 6.33241L46.1874 3.45875ZM44.167 2.64093H36.0147V6.64093H44.167V2.64093ZM38.0147 4.64093V0.88421H34.0147V4.64093H38.0147ZM38.0147 0.88421C38.0147 0.107296 37.7 -0.630216 37.1521 -1.16817L34.3497 1.68613C34.1396 1.47982 34.0147 1.19211 34.0147 0.88421H38.0147ZM37.1521 -1.16817C36.6054 -1.70489 35.8716 -2 35.1141 -2V2C34.8342 2 34.5586 1.89121 34.3497 1.68613L37.1521 -1.16817ZM35.1141 -2H10.0772V2H35.1141V-2ZM10.0772 -2C9.31963 -2 8.58587 -1.70489 8.03919 -1.16817L10.8415 1.68613C10.6326 1.8912 10.357 2 10.0772 2V-2ZM8.03919 -1.16817C7.49127 -0.63022 7.17657 0.107289 7.17657 0.88421H11.1766C11.1766 1.19212 11.0516 1.47982 10.8415 1.68613L8.03919 -1.16817ZM7.17657 0.88421V8.64994H11.1766V0.88421H7.17657ZM7.17657 8.64994C7.17657 9.42686 7.49127 10.1644 8.03919 10.7023L10.8415 7.84802C11.0516 8.05432 11.1766 8.34203 11.1766 8.64994H7.17657ZM8.03919 10.7023C8.58587 11.239 9.31963 11.5341 10.0772 11.5341V7.53415C10.357 7.53415 10.6326 7.64295 10.8415 7.84802L8.03919 10.7023ZM10.0772 11.5341C10.8347 11.5341 11.5685 11.239 12.1152 10.7023L9.31285 7.84802C9.52172 7.64295 9.79734 7.53415 10.0772 7.53415V11.5341ZM12.1152 10.7023C12.6631 10.1644 12.9778 9.42686 12.9778 8.64994H8.97779C8.97779 8.34203 9.10272 8.05432 9.31285 7.84802L12.1152 10.7023ZM12.9778 8.64994V1.76842H8.97779V8.64994H12.9778ZM10.9778 3.76842H34.2135V-0.231579H10.9778V3.76842ZM32.2135 1.76842V27.3958H36.2135V1.76842H32.2135ZM34.2135 25.3958H26.1122V29.3958H34.2135V25.3958ZM26.1122 25.3958C25.3546 25.3958 24.6209 25.6909 24.0742 26.2276L26.8765 29.0819C26.6677 29.287 26.392 29.3958 26.1122 29.3958V25.3958ZM24.0742 26.2276C23.5263 26.7656 23.2116 27.5031 23.2116 28.28H27.2116C27.2116 28.5879 27.0867 28.8756 26.8765 29.0819L24.0742 26.2276ZM23.2116 28.28C23.2116 29.0569 23.5263 29.7944 24.0742 30.3324L26.8765 27.4781C27.0867 27.6844 27.2116 27.9721 27.2116 28.28H23.2116ZM24.0742 30.3324C24.6209 30.8691 25.3546 31.1642 26.1122 31.1642V27.1642C26.392 27.1642 26.6677 27.273 26.8765 27.4781L24.0742 30.3324ZM26.1122 31.1642H38.3365V27.1642H26.1122V31.1642ZM38.3365 31.1642C39.094 31.1642 39.8278 30.8691 40.3744 30.3324L37.5721 27.4781C37.781 27.273 38.0566 27.1642 38.3365 27.1642V31.1642ZM40.3744 30.3324C40.9223 29.7944 41.2371 29.0569 41.2371 28.28H37.2371C37.2371 27.9721 37.362 27.6844 37.5721 27.4781L40.3744 30.3324ZM41.2371 28.28C41.2371 27.5031 40.9223 26.7656 40.3744 26.2276L37.5721 29.0819C37.362 28.8756 37.2371 28.5879 37.2371 28.28H41.2371ZM40.3744 26.2276C39.8278 25.6909 39.094 25.3958 38.3365 25.3958V29.3958C38.0566 29.3958 37.781 29.287 37.5721 29.0819L40.3744 26.2276ZM38.3365 25.3958H36.0147V29.3958H38.3365V25.3958ZM38.0147 27.3958V6.41053H34.0147V27.3958H38.0147ZM36.0147 8.41053H43.7941V4.41053H36.0147V8.41053ZM42.4029 7.84736L48.8074 14.0486L51.5899 11.175L45.1854 4.9737L42.4029 7.84736ZM48.1987 12.6118V27.3958H52.1987V12.6118H48.1987ZM50.1987 25.3958H49.0579V29.3958H50.1987V25.3958ZM49.0579 25.3958C48.3003 25.3958 47.5666 25.6909 47.0199 26.2276L49.8222 29.0819C49.6134 29.287 49.3377 29.3958 49.0579 29.3958V25.3958ZM47.0199 26.2276C46.472 26.7655 46.1573 27.503 46.1573 28.28H50.1573C50.1573 28.5879 50.0323 28.8756 49.8222 29.0819L47.0199 26.2276ZM46.1573 28.28C46.1573 29.0569 46.472 29.7944 47.0199 30.3324L49.8222 27.4781C50.0323 27.6844 50.1573 27.9721 50.1573 28.28H46.1573ZM47.0199 30.3324C47.5666 30.8691 48.3003 31.1642 49.0579 31.1642V27.1642C49.3377 27.1642 49.6134 27.273 49.8222 27.4781L47.0199 30.3324ZM49.0579 31.1642H51.0993V27.1642H49.0579V31.1642ZM51.0993 31.1642C51.8568 31.1642 52.5906 30.8691 53.1372 30.3324L50.3349 27.4781C50.5438 27.273 50.8194 27.1642 51.0993 27.1642V31.1642ZM53.1372 30.3324C53.6852 29.7944 53.9999 29.0569 53.9999 28.28H49.9999C49.9999 27.9721 50.1248 27.6844 50.3349 27.4781L53.1372 30.3324ZM53.9999 28.28V12.241H49.9999V28.28H53.9999ZM53.9999 12.2393C53.9995 11.8526 53.921 11.4709 53.77 11.1164L50.0902 12.6846C50.0311 12.5458 50 12.3955 49.9999 12.2427L53.9999 12.2393ZM53.77 11.1164C53.619 10.762 53.3989 10.443 53.1243 10.1767L50.3399 13.0485C50.2348 12.9466 50.1493 12.8232 50.0902 12.6846L53.77 11.1164Z" fill="#BBBBBB" mask="url(#path-9-inside-5)"/>
<path d="M38.5253 20.0017L39.0627 19.4543L38.5253 20.0017Z" fill="white" stroke="#BBBBBB" stroke-width="2"/>
<mask id="path-12-inside-6" fill="white">
<path d="M19.6184 26.4518C18.7573 26.4518 17.9156 26.7025 17.1996 27.1722C16.4837 27.6419 15.9257 28.3094 15.5962 29.0905C15.2667 29.8716 15.1805 30.731 15.3485 31.5601C15.5166 32.3893 15.9313 33.1509 16.5402 33.7486C17.1491 34.3464 17.9249 34.7534 18.7694 34.9183C19.6139 35.0831 20.4893 34.9984 21.2848 34.6748C22.0803 34.3512 22.7602 33.8033 23.2385 33.1003C23.7168 32.3973 23.972 31.5709 23.9719 30.7255C23.9706 29.5923 23.5115 28.5059 22.6953 27.7047C21.8792 26.9035 20.7726 26.4529 19.6184 26.4518ZM19.6184 33.2307C19.1136 33.2307 18.6201 33.0838 18.2004 32.8084C17.7806 32.5331 17.4535 32.1417 17.2603 31.6838C17.0672 31.2259 17.0166 30.7221 17.1151 30.236C17.2136 29.7499 17.4567 29.3034 17.8136 28.953C18.1706 28.6025 18.6253 28.3639 19.1204 28.2672C19.6155 28.1705 20.1287 28.2201 20.5951 28.4098C21.0615 28.5994 21.4601 28.9206 21.7406 29.3327C22.021 29.7448 22.1707 30.2293 22.1707 30.7249C22.1701 31.3893 21.901 32.0264 21.4225 32.4963C20.944 32.9662 20.2951 33.2305 19.6184 33.2313V33.2307Z"/>
</mask>
<path d="M19.6184 26.4518C18.7573 26.4518 17.9156 26.7025 17.1996 27.1722C16.4837 27.6419 15.9257 28.3094 15.5962 29.0905C15.2667 29.8716 15.1805 30.731 15.3485 31.5601C15.5166 32.3893 15.9313 33.1509 16.5402 33.7486C17.1491 34.3464 17.9249 34.7534 18.7694 34.9183C19.6139 35.0831 20.4893 34.9984 21.2848 34.6748C22.0803 34.3512 22.7602 33.8033 23.2385 33.1003C23.7168 32.3973 23.972 31.5709 23.9719 30.7255C23.9706 29.5923 23.5115 28.5059 22.6953 27.7047C21.8792 26.9035 20.7726 26.4529 19.6184 26.4518ZM19.6184 33.2307C19.1136 33.2307 18.6201 33.0838 18.2004 32.8084C17.7806 32.5331 17.4535 32.1417 17.2603 31.6838C17.0672 31.2259 17.0166 30.7221 17.1151 30.236C17.2136 29.7499 17.4567 29.3034 17.8136 28.953C18.1706 28.6025 18.6253 28.3639 19.1204 28.2672C19.6155 28.1705 20.1287 28.2201 20.5951 28.4098C21.0615 28.5994 21.4601 28.9206 21.7406 29.3327C22.021 29.7448 22.1707 30.2293 22.1707 30.7249C22.1701 31.3893 21.901 32.0264 21.4225 32.4963C20.944 32.9662 20.2951 33.2305 19.6184 33.2313V33.2307Z" fill="white"/>
<path d="M23.9719 30.7255L25.9719 30.7252L25.9719 30.7232L23.9719 30.7255ZM19.6184 33.2307H21.6184V31.2307H19.6184V33.2307ZM22.1707 30.7249L24.1707 30.7268V30.7249H22.1707ZM19.6184 33.2313H17.6184V35.2336L19.6207 35.2313L19.6184 33.2313ZM19.6184 24.4518C18.3698 24.4518 17.1464 24.8151 16.1025 25.4999L18.2967 28.8444C18.6847 28.5898 19.1448 28.4518 19.6184 28.4518V24.4518ZM16.1025 25.4999C15.0583 26.185 14.2388 27.1625 13.7534 28.3131L17.4389 29.8679C17.6125 29.4564 17.909 29.0988 18.2967 28.8444L16.1025 25.4999ZM13.7534 28.3131C13.2678 29.4642 13.1402 30.733 13.3884 31.9574L17.3087 31.1629C17.2208 30.729 17.2655 30.2789 17.4389 29.8679L13.7534 28.3131ZM13.3884 31.9574C13.6365 33.1816 14.2478 34.3009 15.1391 35.1759L17.9412 32.3214C17.6147 32.0009 17.3967 31.597 17.3087 31.1629L13.3884 31.9574ZM15.1391 35.1759C16.03 36.0505 17.1607 36.642 18.3862 36.8812L19.1526 32.9553C18.689 32.8648 18.2681 32.6423 17.9412 32.3214L15.1391 35.1759ZM18.3862 36.8812C19.6116 37.1204 20.882 36.9978 22.0384 36.5274L20.5312 32.8222C20.0966 32.999 19.6163 33.0458 19.1526 32.9553L18.3862 36.8812ZM22.0384 36.5274C23.1951 36.0568 24.1897 35.2577 24.892 34.2253L21.5849 31.9752C21.3307 32.3488 20.9655 32.6456 20.5312 32.8222L22.0384 36.5274ZM24.892 34.2253C25.5947 33.1926 25.9721 31.9744 25.9719 30.7252L21.9719 30.7257C21.972 31.1673 21.8388 31.6021 21.5849 31.9752L24.892 34.2253ZM25.9719 30.7232C25.97 29.0484 25.2911 27.4503 24.0964 26.2774L21.2943 29.1319C21.7319 29.5616 21.9712 30.1362 21.9719 30.7277L25.9719 30.7232ZM24.0964 26.2774C22.9029 25.1059 21.2925 24.4534 19.6203 24.4518L19.6165 28.4518C20.2527 28.4524 20.8554 28.7011 21.2943 29.1319L24.0964 26.2774ZM19.6184 31.2307C19.501 31.2307 19.3893 31.1964 19.2974 31.1361L17.1033 34.4807C17.8509 34.9711 18.7261 35.2307 19.6184 35.2307V31.2307ZM19.2974 31.1361C19.206 31.0761 19.1403 30.9947 19.103 30.9064L15.4176 32.4613C15.7667 33.2887 16.3553 33.99 17.1033 34.4807L19.2974 31.1361ZM19.103 30.9064C19.066 30.8185 19.0569 30.724 19.0753 30.6331L15.1549 29.8389C14.9764 30.7202 15.0683 31.6334 15.4176 32.4613L19.103 30.9064ZM19.0753 30.6331C19.0937 30.5421 19.1402 30.4533 19.2148 30.3801L16.4124 27.5258C15.7731 28.1535 15.3334 28.9578 15.1549 29.8389L19.0753 30.6331ZM19.2148 30.3801C19.2897 30.3065 19.3896 30.2524 19.5038 30.2301L18.7371 26.3043C17.861 26.4753 17.0514 26.8985 16.4124 27.5258L19.2148 30.3801ZM19.5038 30.2301C19.6181 30.2078 19.7362 30.2195 19.8417 30.2624L21.3485 26.5571C20.5212 26.2207 19.613 26.1332 18.7371 26.3043L19.5038 30.2301ZM19.8417 30.2624C19.9468 30.3052 20.0308 30.3752 20.0871 30.458L23.394 28.2074C22.8894 27.466 22.1761 26.8937 21.3485 26.5571L19.8417 30.2624ZM20.0871 30.458C20.1432 30.5403 20.1707 30.6331 20.1707 30.7249H24.1707C24.1707 29.8254 23.8988 28.9493 23.394 28.2074L20.0871 30.458ZM20.1707 30.723C20.1706 30.8458 20.1212 30.9711 20.0211 31.0693L22.8238 33.9233C23.6808 33.0817 24.1695 31.9329 24.1707 30.7268L20.1707 30.723ZM20.0211 31.0693C19.9199 31.1688 19.7749 31.2311 19.6161 31.2313L19.6207 35.2313C20.8154 35.2299 21.9681 34.7636 22.8238 33.9233L20.0211 31.0693ZM21.6184 33.2313V33.2307H17.6184V33.2313H21.6184Z" fill="#BBBBBB" mask="url(#path-12-inside-6)"/>
<mask id="path-14-inside-7" fill="white">
<path d="M43.6815 26.4518C42.8204 26.4518 41.9787 26.7025 41.2627 27.1722C40.5468 27.6419 39.9888 28.3094 39.6593 29.0905C39.3298 29.8716 39.2436 30.731 39.4116 31.5601C39.5797 32.3893 39.9944 33.1509 40.6033 33.7486C41.2122 34.3464 41.988 34.7534 42.8325 34.9183C43.6771 35.0831 44.5524 34.9984 45.3479 34.6748C46.1434 34.3512 46.8233 33.8033 47.3016 33.1003C47.7799 32.3973 48.0351 31.5709 48.035 30.7255C48.0337 29.5923 47.5746 28.5059 46.7585 27.7047C45.9423 26.9035 44.8357 26.4529 43.6815 26.4518ZM43.6815 33.2307C43.1767 33.2307 42.6832 33.0838 42.2635 32.8084C41.8438 32.5331 41.5166 32.1417 41.3234 31.6838C41.1303 31.2259 41.0797 30.7221 41.1782 30.236C41.2767 29.7499 41.5198 29.3034 41.8767 28.953C42.2337 28.6025 42.6884 28.3639 43.1835 28.2672C43.6786 28.1705 44.1918 28.2201 44.6582 28.4098C45.1246 28.5994 45.5232 28.9206 45.8037 29.3327C46.0841 29.7448 46.2338 30.2293 46.2338 30.7249C46.2332 31.3893 45.9641 32.0264 45.4856 32.4963C45.0071 32.9662 44.3583 33.2305 43.6815 33.2313V33.2307Z"/>
</mask>
<path d="M43.6815 26.4518C42.8204 26.4518 41.9787 26.7025 41.2627 27.1722C40.5468 27.6419 39.9888 28.3094 39.6593 29.0905C39.3298 29.8716 39.2436 30.731 39.4116 31.5601C39.5797 32.3893 39.9944 33.1509 40.6033 33.7486C41.2122 34.3464 41.988 34.7534 42.8325 34.9183C43.6771 35.0831 44.5524 34.9984 45.3479 34.6748C46.1434 34.3512 46.8233 33.8033 47.3016 33.1003C47.7799 32.3973 48.0351 31.5709 48.035 30.7255C48.0337 29.5923 47.5746 28.5059 46.7585 27.7047C45.9423 26.9035 44.8357 26.4529 43.6815 26.4518ZM43.6815 33.2307C43.1767 33.2307 42.6832 33.0838 42.2635 32.8084C41.8438 32.5331 41.5166 32.1417 41.3234 31.6838C41.1303 31.2259 41.0797 30.7221 41.1782 30.236C41.2767 29.7499 41.5198 29.3034 41.8767 28.953C42.2337 28.6025 42.6884 28.3639 43.1835 28.2672C43.6786 28.1705 44.1918 28.2201 44.6582 28.4098C45.1246 28.5994 45.5232 28.9206 45.8037 29.3327C46.0841 29.7448 46.2338 30.2293 46.2338 30.7249C46.2332 31.3893 45.9641 32.0264 45.4856 32.4963C45.0071 32.9662 44.3583 33.2305 43.6815 33.2313V33.2307Z" fill="white"/>
<path d="M43.6815 26.4518L43.6834 24.4518H43.6815V26.4518ZM48.035 30.7255L50.035 30.7252L50.035 30.7232L48.035 30.7255ZM43.6815 33.2307H45.6815V31.2307H43.6815V33.2307ZM46.2338 30.7249L48.2338 30.7268V30.7249H46.2338ZM43.6815 33.2313H41.6815V35.2336L43.6838 35.2313L43.6815 33.2313ZM43.6815 24.4518C42.4329 24.4518 41.2095 24.8151 40.1657 25.4999L42.3598 28.8444C42.7479 28.5898 43.2079 28.4518 43.6815 28.4518V24.4518ZM40.1657 25.4999C39.1214 26.185 38.3019 27.1625 37.8165 28.3131L41.502 29.8679C41.6756 29.4564 41.9721 29.0988 42.3598 28.8444L40.1657 25.4999ZM37.8165 28.3131C37.331 29.4642 37.2033 30.733 37.4515 31.9574L41.3718 31.1629C41.2839 30.729 41.3286 30.2789 41.502 29.8679L37.8165 28.3131ZM37.4515 31.9574C37.6996 33.1816 38.3109 34.3009 39.2022 35.1759L42.0043 32.3214C41.6778 32.0009 41.4598 31.597 41.3718 31.1629L37.4515 31.9574ZM39.2022 35.1759C40.0931 36.0505 41.2238 36.642 42.4493 36.8812L43.2157 32.9553C42.7521 32.8648 42.3312 32.6423 42.0043 32.3214L39.2022 35.1759ZM42.4493 36.8812C43.6747 37.1204 44.9451 36.9978 46.1015 36.5274L44.5943 32.8222C44.1597 32.999 43.6794 33.0458 43.2157 32.9553L42.4493 36.8812ZM46.1015 36.5274C47.2582 36.0568 48.2528 35.2577 48.9552 34.2253L45.648 31.9752C45.3938 32.3488 45.0286 32.6456 44.5943 32.8222L46.1015 36.5274ZM48.9552 34.2253C49.6579 33.1926 50.0352 31.9744 50.035 30.7252L46.035 30.7257C46.0351 31.1673 45.9019 31.6021 45.648 31.9752L48.9552 34.2253ZM50.035 30.7232C50.0331 29.0484 49.3542 27.4503 48.1595 26.2774L45.3574 29.1319C45.795 29.5616 46.0343 30.1362 46.035 30.7277L50.035 30.7232ZM48.1595 26.2774C46.966 25.1059 45.3556 24.4534 43.6834 24.4518L43.6796 28.4518C44.3158 28.4524 44.9185 28.7011 45.3574 29.1319L48.1595 26.2774ZM43.6815 31.2307C43.5642 31.2307 43.4524 31.1964 43.3605 31.1361L41.1664 34.4807C41.914 34.9711 42.7892 35.2307 43.6815 35.2307V31.2307ZM43.3605 31.1361C43.2691 31.0761 43.2034 30.9947 43.1662 30.9064L39.4807 32.4613C39.8298 33.2887 40.4185 33.99 41.1664 34.4807L43.3605 31.1361ZM43.1662 30.9064C43.1291 30.8185 43.12 30.724 43.1384 30.6331L39.218 29.8389C39.0395 30.7202 39.1315 31.6334 39.4807 32.4613L43.1662 30.9064ZM43.1384 30.6331C43.1568 30.5421 43.2033 30.4533 43.2779 30.3801L40.4756 27.5258C39.8362 28.1535 39.3965 28.9578 39.218 29.8389L43.1384 30.6331ZM43.2779 30.3801C43.3528 30.3065 43.4527 30.2524 43.5669 30.2301L42.8002 26.3043C41.9241 26.4753 41.1145 26.8985 40.4756 27.5258L43.2779 30.3801ZM43.5669 30.2301C43.6812 30.2078 43.7993 30.2195 43.9048 30.2624L45.4116 26.5571C44.5844 26.2207 43.6761 26.1332 42.8002 26.3043L43.5669 30.2301ZM43.9048 30.2624C44.0099 30.3052 44.0939 30.3752 44.1502 30.458L47.4571 28.2074C46.9525 27.466 46.2392 26.8937 45.4116 26.5571L43.9048 30.2624ZM44.1502 30.458C44.2063 30.5403 44.2338 30.6331 44.2338 30.7249H48.2338C48.2338 29.8254 47.962 28.9493 47.4571 28.2074L44.1502 30.458ZM44.2338 30.723C44.2337 30.8458 44.1843 30.9711 44.0842 31.0693L46.8869 33.9233C47.7439 33.0817 48.2326 31.9329 48.2338 30.7268L44.2338 30.723ZM44.0842 31.0693C43.983 31.1688 43.838 31.2311 43.6792 31.2313L43.6838 35.2313C44.8785 35.2299 46.0312 34.7636 46.8869 33.9233L44.0842 31.0693ZM45.6815 33.2313V33.2307H41.6815V33.2313H45.6815Z" fill="#BBBBBB" mask="url(#path-14-inside-7)"/>
</g>
<defs>
<filter id="filter0_d" x="0" y="0" width="55.9999" height="43.0003" filterUnits="userSpaceOnUse" color-interpolation-filters="sRGB">
<feFlood flood-opacity="0" result="BackgroundImageFix"/>
<feColorMatrix in="SourceAlpha" type="matrix" values="0 0 0 0 0 0 0 0 0 0 0 0 0 0 0 0 0 0 127 0" result="hardAlpha"/>
<feOffset dy="4"/>
<feGaussianBlur stdDeviation="2"/>
<feComposite in2="hardAlpha" operator="out"/>
<feColorMatrix type="matrix" values="0 0 0 0 0 0 0 0 0 0 0 0 0 0 0 0 0 0 0.25 0"/>
<feBlend mode="normal" in2="BackgroundImageFix" result="effect1_dropShadow"/>
<feBlend mode="normal" in="SourceGraphic" in2="effect1_dropShadow" result="shape"/>
</filter>
</defs>
</svg>
