<svg width="50" height="50" viewBox="0 0 50 50" fill="none" xmlns="http://www.w3.org/2000/svg">
<path d="M32.7693 11.2093L45.1641 5.30704M32.7693 11.2093L18.8989 11.2093L11.9637 11.2093M32.7693 11.2093L32.7693 17.7019L39.2618 17.7019M45.1641 5.30704L39.2618 17.7019M45.1641 5.30704L49.0006 1.47055M39.2618 17.7019L39.2618 31.5723L39.2618 38.5075M8.27473 28.6211L5.30454 27.631C4.95314 27.5139 4.69527 27.2121 4.63437 26.8468L4.33719 25.0637C4.2356 24.4541 4.70564 23.8993 5.32358 23.8993L10.6357 23.8993L4.95469 18.2183M8.27473 28.6211L19.1962 17.6996C19.3837 17.5121 19.6381 17.4067 19.9033 17.4067L24.8012 17.4067L12.0691 30.1388M8.27473 28.6211L7.21115 29.6847C6.82063 30.0752 6.82063 30.7084 7.21115 31.0989L8.45297 32.3407C8.8435 32.7312 9.47666 32.7312 9.86718 32.3407L12.0691 30.1388M21.85 42.1964L22.8401 45.1666C22.9572 45.518 23.259 45.7759 23.6244 45.8368L25.4075 46.1339C26.017 46.2355 26.5719 45.7655 26.5719 45.1475L26.5719 39.8355L32.2528 45.5164M21.85 42.1964L32.7715 31.2749C32.959 31.0874 33.0644 30.833 33.0644 30.5678L33.0644 25.67L20.3323 38.4021M21.85 42.1964L20.7864 43.26C20.3959 43.6505 19.7627 43.6505 19.3722 43.26L18.1304 42.0182C17.7399 41.6276 17.7399 40.9945 18.1304 40.6039L20.3323 38.4021M11.9637 11.2093L5.44268 11.2093C5.17746 11.2093 4.92311 11.3147 4.73557 11.5022L2.19419 14.0436C1.80367 14.4341 1.80367 15.0673 2.19419 15.4578L4.95469 18.2183M11.9637 11.2093L15.4313 7.74173M39.2618 38.5075L39.2618 45.0284C39.2618 45.2937 39.1564 45.548 38.9689 45.7356L36.4275 48.2769C36.037 48.6675 35.4038 48.6675 35.0133 48.2769L32.2528 45.5164M39.2618 38.5075L42.5818 35.1874M4.95469 18.2183L3.184 19.989M32.2528 45.5164L30.4821 47.2871M12.0691 30.1388L13.4785 30.7026C13.8922 30.8681 14.1465 31.2873 14.1022 31.7306L13.7084 35.6682C13.6455 36.2969 14.1743 36.8256 14.803 36.7627L18.7405 36.369C19.1838 36.3246 19.603 36.5789 19.7685 36.9926L20.3323 38.4021" stroke="#BBBBBB" stroke-width="2" stroke-linecap="round"/>
</svg>
